<svg width="73" height="73" viewBox="0 0 73 73" fill="none" xmlns="http://www.w3.org/2000/svg">
<rect x="3" y="3" width="66" height="66" rx="16" fill="#778AFF"/>
<path d="M46.4647 72.6539H26.1892C7.83986 72.6539 0 64.814 0 46.4647V26.1892C0 7.83986 7.83986 0 26.1892 0H46.4647C64.814 0 72.6539 7.83986 72.6539 26.1892V46.4647C72.6539 64.814 64.814 72.6539 46.4647 72.6539ZM26.1892 5.06888C10.6108 5.06888 5.06888 10.6108 5.06888 26.1892V46.4647C5.06888 62.043 10.6108 67.585 26.1892 67.585H46.4647C62.043 67.585 67.585 62.043 67.585 46.4647V26.1892C67.585 10.6108 62.043 5.06888 46.4647 5.06888H26.1892Z" fill="#778AFF"/>
<path d="M31.5269 48.4249C30.8511 48.4249 30.209 48.1545 29.7359 47.6814L20.1725 38.1182C19.1925 37.1382 19.1925 35.5161 20.1725 34.5362C21.1525 33.5562 22.7745 33.5562 23.7545 34.5362L31.5269 42.3084L48.8963 24.9391C49.8763 23.9591 51.4983 23.9591 52.4783 24.9391C53.4583 25.9191 53.4583 27.5411 52.4783 28.5211L33.3179 47.6814C32.8448 48.1545 32.2028 48.4249 31.5269 48.4249Z" fill="#D9D9D9"/>
</svg>
