<svg width="73" height="73" viewBox="0 0 73 73" fill="none" xmlns="http://www.w3.org/2000/svg">
<path d="M46.4647 72.6539H26.1892C7.83986 72.6539 0 64.814 0 46.4647V26.1892C0 7.83986 7.83986 0 26.1892 0H46.4647C64.814 0 72.6539 7.83986 72.6539 26.1892V46.4647C72.6539 64.814 64.814 72.6539 46.4647 72.6539ZM26.1892 5.06888C10.6108 5.06888 5.06888 10.6108 5.06888 26.1892V46.4647C5.06888 62.043 10.6108 67.585 26.1892 67.585H46.4647C62.043 67.585 67.585 62.043 67.585 46.4647V26.1892C67.585 10.6108 62.043 5.06888 46.4647 5.06888H26.1892Z" fill="#D9D9D9"/>
</svg>
